<?xml version="1.0" standalone="yes"?>
<svg xmlns="http://www.w3.org/2000/svg" width="1024" height="1024">
<path style="fill:#060606; stroke:none;" d="M0 0L0 1024L1024 1024L1024 0L0 0z"/>
<path style="fill:#ca9d41; stroke:none;" d="M486 57.4244C475.416 58.8141 464.608 58.9074 454 60.2894C436.25 62.6017 418.31 66.3386 401 70.8843C330.635 89.3623 265.232 125.503 212 175.089C175.652 208.948 145.92 250.666 123.753 295C40.0031 462.5 78.1841 673.155 210.015 804.985C250 844.97 298.732 877.487 351 898.989C421.053 927.809 498.092 936.276 573 926.714C625.622 919.998 677.035 901.426 723 875.281C822.576 818.642 897.205 720.922 928.573 611C937.831 578.556 942.792 545.543 945.089 512C946.214 495.574 947.04 478.486 945.911 462C941.62 399.353 924.708 336.369 894.691 281C869.537 234.6 835.06 193.431 795 159.272C752.894 123.368 703.393 96.4645 651 79C608.929 64.9762 564.347 57 520 57C508.832 57 497.08 55.9695 486 57.4244z"/>
<path style="fill:#060606; stroke:none;" d="M492 74.4244C479.075 76.1214 465.939 76.2986 453 78.2963C426.564 82.3779 400.346 88.3688 375 97.0031C273.08 131.723 185.548 206.977 138.259 304C107.888 366.312 93.0042 436.686 96.0394 506C101.944 640.843 173.945 772.846 288 846.308C332.466 874.948 381.173 895.27 433 905.801C473.373 914.004 516.049 916.612 557 911.714C627.613 903.269 694.027 878.002 752 836.573C856.158 762.138 923.363 635.833 928.961 508C931.58 448.19 921.864 388.706 899.796 333C850.531 208.641 739.007 115.011 609 85.1188C585.585 79.7349 561.911 76.5496 538 74.9105C523.066 73.8868 506.927 72.4644 492 74.4244z"/>
<path style="fill:#ca9d41; stroke:none;" d="M535 108C534.351 139.452 525.349 170.581 524 202C537.144 204.44 550.737 205.376 564 207.271C567.416 207.759 575.304 210.224 578.258 207.958C581.292 205.629 581.296 196.631 582 193C569.825 192.749 555.839 190.826 544 188C546.305 180.273 546.125 171.856 548 164C557.935 167.142 568.859 166.579 579 169C580.728 163.896 581.576 158.37 582 153C571.55 151.059 560.618 149.456 550 149C550.021 141.254 551.936 133.735 552 126C564.26 127.549 576.729 129.998 589 131C590.047 125.379 590.953 119.725 591 114C572.281 113.845 553.774 108.052 535 108M434 114C434.201 123.733 436.353 133.394 437.715 143C440.753 164.434 444.297 186.422 446 208C450.427 207.178 461.054 208.236 463.933 204.262C465.314 202.355 464.285 199.124 464.05 197C463.421 191.305 462.336 185.719 461.915 180C461.746 177.696 460.843 174.637 462.643 172.742C465.625 169.604 473.96 170.288 478 169.714C487.59 168.354 496.41 164.909 502.468 156.999C514.512 141.271 506.71 116.549 488 110.774C479.334 108.099 471.71 109.789 463 110.845C453.34 112.016 443.65 112.781 434 114M629 124L624 140C636.574 144.878 649.589 152.991 663 155C657.612 160.879 649.754 164.673 643 168.811C630.958 176.189 618.744 183.518 607 191.355C602.154 194.589 591.407 204.176 596.067 211.351C597.894 214.164 603.065 215.225 606 216.4C614.358 219.743 622.663 223.209 631 226.603C638.888 229.814 646.782 233.752 655 236C657.797 231.207 660.21 226.258 662 221C650.581 214.501 635.792 208.031 623 205C639.901 191.007 660.554 180.201 679 168.308C683.84 165.187 693.842 156.564 689.879 149.418C688.219 146.425 682.912 145.416 680 144.139C671.387 140.362 662.731 136.703 654 133.2C646.032 130.003 637.598 124.88 629 124z"/>
<path style="fill:#060606; stroke:none;" d="M455 127C455.201 136.726 457.919 146.252 458 156C465.518 155.979 476.672 156.014 482.945 151.347C490.631 145.629 489.634 130.642 480.985 126.179C473.66 122.399 462.718 126.391 455 127z"/>
<path style="fill:#ca9d41; stroke:none;" d="M364 135.465C355.874 136.927 347.491 140.412 341 145.518C303.647 174.901 331.284 240.972 379 232.384C389.242 230.541 399.441 226.231 406.96 218.91C426.985 199.411 424.45 164.601 403.961 146.301C393.265 136.748 378.09 132.929 364 135.465z"/>
<path style="fill:#060606; stroke:none;" d="M366 152.468C362.536 153.117 359.018 154.383 356 156.214C329.656 172.197 347.351 221.06 378 215.535C383.04 214.627 387.953 212.667 391.985 209.471C414.581 191.557 394.087 147.203 366 152.468z"/>
<path style="fill:#ca9d41; stroke:none;" d="M228 228C231.903 233.901 236.958 238.681 241.576 244C252.139 256.167 263.103 267.982 273.834 280C277.674 284.3 281.363 288.755 285.285 292.98C286.761 294.569 288.611 296.793 291.001 296.793C295.93 296.793 301.439 288.03 305 285C301.248 279.653 296.57 274.931 292.282 270C288.844 266.048 285.66 261.487 281 259L281 257C284.238 255.5 287.743 251.201 291.424 251.338C294.249 251.443 297.417 253.366 300 254.4L317 261.201C319.893 262.367 323.769 264.889 326.999 264.184C330.912 263.329 333.701 258.825 336.15 256.002C338.133 253.716 339.73 251.728 341 249C328.934 244.918 316.538 238.159 304 236C306.084 230.59 308.46 224.931 307.812 219C305.87 201.248 288.69 190.274 272 194.515C262.289 196.982 254.311 204.41 247 210.845C240.597 216.482 234.059 221.991 228 228M689 253C691.952 257.463 697.676 267.1 704 265.886C709.109 264.905 715.379 257.461 720.576 258.662C723.299 259.291 725.979 262.501 728.001 264.286C733.368 269.023 738.957 274.105 743.887 279.286C750.187 285.905 739.978 292.987 739.284 299.985C738.738 305.486 749.634 312.964 754 315C756.099 307.711 760.015 300.96 762.999 294C769.732 278.3 776.594 262.657 783.424 247C786.683 239.53 791.56 232.079 793 224C787.743 220.298 781.557 210.961 775 209.993C772.266 209.589 769.306 211.569 767 212.781C761.982 215.418 757.075 218.215 752 220.753C731.023 231.242 710.514 243.729 689 253z"/>
<path style="fill:#060606; stroke:none;" d="M254 226C258.742 233.583 265.126 240.275 271 247C277.714 243.138 286.951 236.771 289.346 229C292.275 219.501 282.188 210.506 273 212.394C265.556 213.924 259.208 220.9 254 226M735 248C739.896 254.652 748.512 263.508 756 267C760.172 254.745 766.086 242.977 771 231C758.546 234.941 747.096 242.964 735 248z"/>
<path style="fill:#ca9d41; stroke:none;" d="M498 252C505.539 256.009 515.82 256.599 524 259.684C532.293 262.812 538.978 268.626 547 272C543.04 273.171 539.113 273 535 273C538.922 278.606 547.288 281.797 553 285.436C558.393 288.872 563.089 293.501 569 296C564.147 297.435 559.036 297 554 297C562.038 304.016 571.077 309.359 576.471 319C578.719 323.017 579.753 327.605 581 332C569.667 320.572 558.221 308.395 544 300.44C520.938 287.539 489.364 286.4 466 298.782C457.645 303.21 448.069 310.275 444 319C462.732 311.317 480.979 310 501 310C497.795 312.81 494.848 315.118 493 319C506.078 317.539 518.995 320.964 532 321C528.957 324.166 525.124 326.061 523 330C541.572 327.928 559.293 337.328 572 350C558.257 347.165 544.946 345.785 531 348.461C507.25 353.018 484.823 372.249 476.698 395C472.318 407.265 473.457 418.366 474 431C479.054 427.69 481.086 420.011 484.345 415C491.56 403.907 499.963 392.682 510 384C508.414 390.585 508.233 397.359 507 404C511.48 401.29 514.353 396.066 517.6 392C523.115 385.097 529.015 378.497 535 372L535 388C546.916 379.606 556.255 368.72 572 368C564.778 379.703 556.872 390.866 550.309 403C536.206 429.073 525.086 457.227 517.895 486C503.86 542.156 503.605 602.464 505.015 660C505.285 671.021 507 681.943 507 693C488.818 689.247 470.666 685 452 685L452 563L313 563L313 648L313 671C313 674.787 312.281 679.506 314.028 683C316.876 688.696 323.491 693.587 328 697.985C342.409 712.041 358.777 723.887 376 734.2C434.275 769.093 507.962 780.102 574 764.765C600.456 758.62 625.003 748.584 649 736C643.001 733.483 634.551 734.439 628 733.196C608.048 729.411 588.81 723.384 570 715.799C563.439 713.154 553.418 710.58 548.303 705.582C543.895 701.275 543.655 691.768 542.349 686C538.029 666.906 535.914 647.426 533.834 628C526.913 563.352 534.864 495.276 556.692 434C563.856 413.889 575.645 396.388 584 377L586 377C588.157 382.102 592.022 386.148 594.687 391C599.144 399.116 601.768 408.851 603 418C610.833 409.901 611.477 393.405 609 383C618.519 396.103 624.365 411.287 628 427C631.919 419.682 632.648 409.202 633 401C639.213 415.017 642.344 432.72 643 448C647.875 442.766 649.851 434.018 650 427L652 427C652.027 436.753 654.246 446.299 654.911 456C655.612 466.246 655 476.73 655 487C664.188 477.399 667.622 462.807 669.155 450C673.766 411.488 655.064 372.961 617 360C637.366 353.811 653.091 364.577 671 372L666 357C676.832 367.825 690.136 377.417 699 390C700.692 384.482 697.537 376.467 696 371C709.675 384.675 721.165 398.326 731 415C732.806 410.696 731.98 405.525 731.246 401C729.781 391.966 727.479 383.154 723.215 375C702.504 335.39 654.353 324.578 615 342C624.797 330.713 641.143 323.296 656 322C649.591 318.086 640.763 319.035 635 314C649.086 313.395 662.823 311 677 311C671.498 307.299 664.991 304.839 659 302C675.551 298.014 690.635 299.257 707 303C688.627 284.319 652.293 277.862 629 290.324C620.452 294.898 614.293 302.021 609.004 310C605.196 315.744 600.718 322.025 600 329L598 329C598 314.774 597.659 301.245 591.688 288C575.354 251.766 533.56 239.989 498 252M210 249C201.634 263.686 190.343 277.2 180.576 291C177.748 294.995 169.661 302.732 170.113 307.907C170.532 312.685 180.033 316.971 184 318C187.92 311.119 193.916 305.296 197 298C205.299 301.491 212.539 308.001 220 312.999C233.394 321.973 247.797 330.441 260 341C265.353 336.578 270.035 329.679 272 323C255.875 314.014 241.348 301.904 226 291.667C220.509 288.004 215.086 283.56 209 281C213.753 273.368 221.142 266.62 224 258L210 249M334 373C330.749 373 326.166 372.277 323.318 374.179C318.038 377.705 322.546 383.29 327 384L327 436C323.05 436 305.828 436.005 312.758 444.566C314.938 447.26 318.897 446.983 322 446.999L343 447L421 447L441 446.999C443.869 446.984 447.322 447.222 449.681 445.258C452.891 442.586 451.561 438.066 447.941 436.603C444.335 435.146 439.622 436.138 436 437L436 384C440.674 383.646 446.993 379.364 441.566 374.603C438.893 372.259 434.283 373 431 373C430.985 349.755 417.857 329.492 396 321C397.161 315.945 396.607 311.211 392.66 307.414C390.659 305.489 387.746 304.584 386.603 301.867C383.913 295.47 386.125 284.884 385.995 278.001C385.946 275.397 385.427 269.526 381.209 271.256C377.963 272.588 378.044 277.123 378.004 280C377.913 286.535 379.993 296.728 377.397 302.787C376.074 305.876 372.327 307.281 370.483 310.105C368.372 313.337 369.314 317.662 367.228 320.582C364.116 324.936 356.151 327.387 352.015 331.174C340.153 342.031 334.01 357.131 334 373M759 326C761.265 331.887 765.701 336.655 769 342C777.997 339.133 786.183 331.877 794 326.667C811.03 315.314 828.125 302.952 846 293C845.004 288.762 840.079 277.505 834.907 277.306C832.431 277.21 829.938 279.39 828 280.667L814 290C795.94 302.034 777.949 315.45 759 326z"/>
<path style="fill:#060606; stroke:none;" d="M350 373L396 373C400.32 373 409.853 374.779 413.397 371.972C416.033 369.884 414.878 364.787 414.385 362C412.889 353.534 409.425 345.459 402.826 339.67C389.694 328.147 369.251 330.26 358.529 344.004C351.934 352.459 350.001 362.564 350 373z"/>
<path style="fill:#ca9d41; stroke:none;" d="M372 365L391 365C390.967 361.311 391.009 357.33 388.347 354.419C384.249 349.938 376.413 350.83 373.457 356.108C371.932 358.829 372.027 361.986 372 365z"/>
<path style="fill:#060606; stroke:none;" d="M364 436L400 436L400 411C400 406.363 400.494 401.309 398.427 397.001C392.695 385.052 372.676 384.547 366.228 396.004C363.614 400.649 364 405.865 364 411L364 436z"/>
<path style="fill:#ca9d41; stroke:none;" d="M192 456C184.755 457.599 184.272 462.983 191.04 466.86C195.615 469.481 201.636 469.346 205.956 466.297C211.797 462.174 213.204 452.402 206.891 447.995C203.648 445.73 199.251 445.71 196.164 443.272C193.53 441.192 193.159 437.123 197.109 436.377C200.398 435.755 202.418 438.473 205.281 439.326C207.159 439.887 209.136 439.327 211 439C209.939 435.431 208.44 432.027 204.957 430.179C198.2 426.594 187.577 430.022 186.232 438C185.124 444.57 189.292 448.538 195 450.652C197.855 451.709 202.528 452.684 203.503 456.103C204.401 459.254 200.861 461.806 198.004 461.534C194.769 461.226 193.243 458.579 192 456M216 429L216 436L226 436L226 468L233 468L233 436L243 436C242.428 433.623 242.11 431.442 242 429L216 429M683 450C687.092 460.974 691.36 472.59 694 484L702 484C704.454 472.141 710.23 460.986 712 449C702.058 449.326 699.728 464.656 699 473C693.185 466.343 695.366 446.479 683 450M770 474C767.884 473.629 765.605 472.942 763.593 474.052C761.032 475.464 759.514 478.802 756.051 477.593C744.013 473.389 754.409 444.358 763 460C765.146 459.496 766.979 458.881 769 458C764.545 444.934 747.522 447.06 744.529 460C743.105 466.16 743.443 474.81 747.569 479.892C755.08 489.144 767.03 483.997 770 474M773 484L780 484L781 477C787.805 477 792.994 476.407 795 484L802 484C800.636 474.766 796.574 465.839 793.67 457C792.641 453.869 791.999 449.528 787.986 449.207C783.46 448.845 782.468 453.621 781.333 457C778.392 465.761 774.352 474.845 773 484M802 449L802 455L811 455L811 484L817 484L817 455L826 455L826 449L802 449M831 449L831 484L837 484L837 449L831 449M853 449.573C836.287 454.346 840.973 489.656 860 484.424C876.72 479.825 872.776 443.924 853 449.573M875 484L882 484L882 462C887.139 470.396 890.834 483.868 902 484L902 449L895 449C895 456.283 894.305 463.879 896 471C892.095 467.148 889.588 461.746 886.85 457C885.343 454.388 883.858 450.777 880.819 449.623C876.058 447.813 875.072 452.464 875.005 456.001C874.828 465.327 875 474.672 875 484M722 450C720.272 461.698 713.728 472.302 712 484C717.254 483.828 719.159 482.231 720 477L733 477L734 484L741 484C739.804 475.901 736.44 467.659 733.576 460C732.566 457.3 731.714 452.846 729.298 451.028C727.363 449.572 724.265 450.008 722 450z"/>
<path style="fill:#060606; stroke:none;" d="M855.104 454.851C848.712 456.782 848.891 469.042 850.893 473.956C852.021 476.724 854.771 479.167 857.957 478.288C864.34 476.526 864.254 463.94 862.258 459.044C861.126 456.267 858.245 453.903 855.104 454.851z"/>
<path style="fill:#ca9d41; stroke:none;" d="M320 456L320 542C315.858 542 309.835 540.919 306.11 543.028C303.496 544.508 301.742 547.895 303.786 550.566C306.052 553.528 310.729 552.995 314 553L339 553L430 553L453 553C455.895 552.995 460.008 553.53 462.257 551.258C465.079 548.406 463.24 544.123 459.941 542.742C455.42 540.85 448.824 542 444 542L444 456L320 456z"/>
<path style="fill:#060606; stroke:none;" d="M726 458L722 472L731 472C729.75 467.324 728.581 462.106 726 458M787 458C786.281 462.867 784.288 467.28 783 472L792 472C790.905 467.267 789.595 462.124 787 458z"/>
<path style="fill:#ca9d41; stroke:none;" d="M246.318 461.047C242.227 463.66 246.65 469.56 250.397 466.802C253.891 464.229 250.156 458.595 246.318 461.047z"/>
<path style="fill:#060606; stroke:none;" d="M363 542L402 542L402 498C402 491.093 403.353 482.519 400.713 476C395.688 463.593 374.416 460.056 366.109 471.185C361.57 477.265 363 485.863 363 493L363 542z"/>
<path style="fill:#ca9d41; stroke:none;" d="M128 484L128 491L137 491L137 520L144 520L144 490C147.04 490.724 149.878 490.974 153 491L153 484L128 484M157 484L157 520L164 520L164 507C170.546 508.926 170.405 515.637 175.529 518.972C177.65 520.352 180.596 519.991 183 520C180.813 514.774 177.875 509.876 175 505C182.375 502.245 184.418 491.787 177.786 486.728C172.355 482.585 163.384 484 157 484M196.001 484.653C178.413 490.189 184.432 526.799 205 520.347C222.809 514.761 216.546 478.185 196.001 484.653M220 484L220 520L227 520L227 507C230.841 507 235.458 507.641 238.985 505.821C245.904 502.249 247.201 491.527 240.867 486.703C235.352 482.503 226.489 484 220 484M250 484L250 520L270 520L270 514L257 514L257 505L269 505L269 499L257 499L257 491L269 491L269 484L250 484M274 484L274 490L288 490C283.309 499.915 273.274 508.612 273 520L297 520L297 514L282 514C287.452 504.171 295.96 495.694 296 484L274 484z"/>
<path style="fill:#060606; stroke:none;" d="M164 490L164 501C166.84 500.99 170.352 501.379 172.681 499.397C175.88 496.675 174.6 492.091 170.943 490.603C168.824 489.742 166.235 490.008 164 490M198.213 490.758C189.975 494.208 192.14 518.08 202.891 514.214C209.392 511.876 208.697 500.045 206.517 495.044C205.076 491.738 201.972 489.183 198.213 490.758M227 501C228.949 500.994 231.037 501.153 232.961 500.772C243.551 498.67 232.949 485.443 228.028 491.604C226.227 493.859 227 498.306 227 501z"/>
<path style="fill:#ca9d41; stroke:none;" d="M545 585L637 585L697 585L755 585C759.716 585 771.649 587.18 774.581 582.682C777.386 578.378 779.314 567.643 776.106 563.329C773.34 559.609 768.025 557.735 764 555.756C754.255 550.965 743.488 545.675 733 542.786C727.081 541.155 720.96 542.196 715 540.251C707.553 537.821 700.012 532.14 692 532.083C683.568 532.024 676.668 539.567 668 537.439C663.327 536.292 659.072 533.043 655 530.6C645.034 524.621 635.286 518.209 625 512.781C621.057 510.7 616.422 507.558 612 506.742C608.281 506.057 605.037 508.395 602 510.201C596.371 513.548 590.684 516.752 585 520.001C575.978 525.157 566.987 530.36 558 535.576C554.482 537.618 549.169 539.545 547.028 543.21C545.422 545.958 545.979 549.931 545.576 553C544.198 563.491 545 574.427 545 585M797 555C796 567.562 791.424 580.268 787.05 592C777.442 617.772 763.866 642.008 747.373 664C727.125 691 702.843 715.75 675 734.975C598.788 787.596 501.714 799.74 415 767.947C351.118 744.525 294.828 696.985 262.309 637C253.479 620.714 246.447 603.7 241.025 586C238.61 578.117 237.633 569.777 235 562L226 564C230.704 600.426 247.397 637.153 268.28 667C295.372 705.722 331.37 738.174 373 760.691C477.292 817.102 610.543 802.122 702 728.195C741.432 696.322 774.504 652.312 790.667 604C794.575 592.318 798.1 580.25 799.711 568C800.313 563.417 802.227 556.752 797 555M823 555C819.942 568.373 816.745 581.802 813 595C823.195 598.846 834.427 600.73 845 603.373C855.199 605.923 865.615 609.472 876 611C877.185 597.408 884.404 584.681 885 571L874 568C872.755 577.234 868.884 585.896 867 595C863.61 593.721 857.081 593.41 854.777 590.436C853.352 588.596 854.153 586.028 854.634 584C855.907 578.637 857.505 573.306 859 568L848 565C846.063 570.163 845.309 575.677 843.869 580.999C843.32 583.026 842.823 585.691 840.697 586.672C837.362 588.21 831.506 585.472 828 585C829.86 575.989 832.771 567.13 834 558C830.255 557.225 826.641 556.164 823 555z"/>
<path style="fill:#060606; stroke:none;" d="M361 684L404 684C404 665.996 405 648.049 405 630C405 621.297 406.08 611.334 403.031 603C397.86 588.866 375.533 584.713 365.532 596.185C359.226 603.42 361 614.132 361 623L361 684z"/>
<path style="fill:#ca9d41; stroke:none;" d="M176 626C174.081 621.81 171.024 618.465 168 615C149.06 628.982 161.843 672.212 188 661.517C201.286 656.085 198.945 642.472 197.424 631C196.737 625.816 196.848 617.919 204.003 617.738C209.915 617.59 213.458 624.855 212.566 630C212.095 632.722 209.91 635.185 210.062 638C210.237 641.232 213.356 644.356 215 647C234.977 637.48 222.585 601.373 201 604.305C198.232 604.681 195.392 605.535 193.004 607.005C183.361 612.942 184.868 623.36 185.95 633C186.507 637.967 188.199 643.787 183.772 647.551C178.946 651.652 173.86 646.398 171.769 641.999C168.79 635.735 170.782 630.098 176 626M562 623C571.806 630.297 585.983 625.131 597 626.443C612.449 628.283 625.39 639.258 641 639.961C656.459 640.656 669.979 630.173 685 631.094C691.886 631.517 698.368 634.483 705 636.102C715.715 638.717 733.327 639.078 743 633C733.893 630.119 724.135 629.503 715 626.653C703.896 623.188 692.833 617.126 681 617.004C668.551 616.875 657.331 625.128 645 623.826C632.504 622.508 621.386 615.389 609 613.439C593.077 610.933 576.372 616.629 562 623M835 620C832.664 628.541 828.336 636.459 826 645L836 649C837.357 644.988 839.022 641.127 840 637C842.86 638.214 845.396 639.645 847.347 642.174C855.224 652.384 842.007 663.048 832 661.815C823.45 660.761 812.075 653.909 808.322 646C803.609 636.07 814.581 629.076 823 629L824 616C819.51 616.003 815.157 615.952 811 617.92C799.026 623.587 792.305 639.489 796.966 652C801.305 663.647 816.927 673.351 829 674.816C846.819 676.978 864.882 662.186 861.061 643C858.735 631.319 846.372 622.028 835 620M561 656C570.773 664.794 587.082 660.668 599 663.503C614.178 667.113 626.406 679.452 642 681.7C659.566 684.232 675.606 672.409 691 666C686.28 664.307 679.954 666.359 675 666.83C666.724 667.618 658.219 666.747 650 665.827C632.573 663.876 617.508 653.435 600 651.286C586.878 649.676 573.936 654.971 561 656M181 688C182.498 691.953 184.949 695.315 187 699C199.438 695.062 210.621 685.311 222 679C217.337 686.489 212.036 693.852 206.848 701C204.824 703.789 201.059 707.322 201.023 711C200.995 713.918 203.466 716.712 205 719L242 710C231.981 717.952 221.895 726.275 211 733C212.346 737.058 214.897 740.305 217 744C223.655 740.838 229.147 735.783 235 731.374C246.289 722.871 257.523 714.244 269 706C266.797 702.666 263.692 696.793 259.826 695.237C256.584 693.932 251.287 696.53 248 697.199C238.017 699.231 228 701.061 218 703C224.42 695.967 229.349 687.737 234.859 680C237.039 676.939 240.876 672.904 241.212 669C241.539 665.21 237.88 661.062 236 658C229.155 659.976 223.205 664.286 217 667.694C204.94 674.319 192.877 681.061 181 688M754 706C764.678 713.204 775.441 720.342 786 727.72C793.001 732.612 800.113 738.682 808 742C809.826 739.067 815.181 734.019 813.169 730.326C810.236 724.941 794.728 722.144 800.117 714.073C805.909 705.398 818.158 717.078 825.725 714.306C829.384 712.967 831.038 706.341 832 703C823.577 702.637 815.346 700.078 807 699C811.084 685.177 795.95 670.928 782 674.793C770.164 678.073 759.012 695.452 754 706z"/>
<path style="fill:#060606; stroke:none;" d="M222 678L223 679L222 678M771 702C776.618 705.467 781.749 709.712 788 712C790.667 706.988 796.699 700.12 795.473 694.04C794.397 688.703 786.666 685.73 782.004 688.032C776.957 690.523 773.101 697.005 771 702z"/>
<path style="fill:#ca9d41; stroke:none;" d="M716 741C724.963 753.724 738.424 763.333 748.714 775C751.67 778.351 756.991 786.793 762 786.793C766.374 786.793 771.197 779.803 774 777C780.133 770.867 793.519 762.664 783.04 755.031C781.745 754.088 780.458 753.617 779 753C774.332 759.002 767.67 763.262 764 770C759.344 766.72 755.28 762.656 752 758C758.732 754.861 763.795 748.205 769 743C767.222 740.485 764.542 736.205 761 736.207C758.572 736.208 756.641 738.494 755 739.981C751.1 743.515 747.059 746.693 744 751C741.581 748.581 737.109 745.44 736.207 742C735.457 739.142 738.251 736.819 740.009 735.001C743.206 731.696 752.793 726.023 752.793 720.999C752.793 716.334 746.769 712.88 743 715.377C738.894 718.096 735.471 722.533 732 726C726.815 731.178 721.274 735.925 716 741M232 760C237.47 771.728 246.221 769.028 254 761C257.918 764.609 261.993 768.052 265.992 771.573C267.731 773.104 270.357 774.852 270.431 777.428C270.561 781.918 266.252 787.621 265 792C268.801 794.194 272.015 797.175 276 799C280.197 784.319 288.552 769.712 295.245 756C297.538 751.301 303.111 742.323 300.879 737C300.25 735.501 299.081 734.153 297.941 733.02C291.152 726.278 286.142 731.667 279 735.247C263.354 743.09 248.067 753.275 232 760z"/>
<path style="fill:#060606; stroke:none;" d="M266 755C268.986 759.057 272.851 762.163 277 765C280.77 758.376 284.068 751.041 287 744C279.658 746.672 272.721 751.036 266 755z"/>
<path style="fill:#ca9d41; stroke:none;" d="M693 758C703.71 777.218 720.131 792.92 731 812C734.409 810.682 741.686 807.262 741.808 802.911C741.941 798.175 734.593 791.553 731.884 788C722.649 775.885 713.87 763.384 705 751C700.594 752.67 696.989 755.538 693 758M326 757C318.709 768.911 311.931 781.128 304.576 793C300.53 799.529 294.769 806.469 293 814C296.778 815.879 300.05 818.481 304 820C307.447 812.711 312.579 806.32 316 799C318.656 800.455 321.168 801.931 324 803C321.706 812.313 322.733 821.665 321 831C325.232 833.473 329.561 835.927 334 838L334 809C338.331 809 342.954 809.468 346.985 807.583C357.049 802.876 362.038 789.786 356.467 780.001C350.892 770.209 335.98 761.721 326 757z"/>
<path style="fill:#060606; stroke:none;" d="M331 773L321 790C325.713 792.848 331.194 797.858 337 797.786C342.943 797.713 348.376 790.727 345.781 785.001C343.24 779.395 336.312 775.513 331 773z"/>
<path style="fill:#ca9d41; stroke:none;" d="M706 811L693 811C692.998 814.635 693.345 818.638 691.682 821.995C687.99 829.452 680.13 830.014 674.04 825.291C667.123 819.926 662.011 808.651 661.177 800C660.472 792.68 665.586 784.141 674 785.651C677.545 786.288 680.347 788.761 683 791L693 783C683.536 770.737 663.352 770.99 653.529 783.043C647.836 790.029 647.052 799.341 648.3 808C649.714 817.805 655.698 829.307 664.004 834.895C677.413 843.917 697.519 841.375 703.931 825C705.746 820.364 705.997 815.912 706 811M368 796C373.7 797.928 379.135 800.61 385 802C380.107 811.179 376.94 821.316 373.189 831C370.486 837.978 366.975 844.78 365 852C369.331 853.68 373.533 855.723 378 857C383.527 840.041 391.289 823.882 397 807C401.981 809.625 407.518 811.701 413 813C414.417 809.346 415.965 805.783 417 802C406.773 799.208 396.835 794.734 387 790.8C383.631 789.453 377.927 785.829 374.213 786.813C370.757 787.729 369.21 793.095 368 796M615 799C616.82 812.503 622.241 827.235 627 840C619.487 832.487 611.513 825.513 604 818C600.611 814.611 596.723 809.155 592 807.644C587.807 806.301 582.155 809.14 578 810C579.102 818.184 582.013 826.038 584.116 834C587.54 846.963 590.673 860.321 595 873L607 870C604.05 855.707 600.096 840.673 595 827C603.546 835.547 612.041 844.064 621 852.17C624.256 855.115 627.619 860.04 632 861.303C635.879 862.421 641.158 859.795 645 859C640.604 837.758 632.883 816.885 627 796C622.861 796.558 618.971 797.73 615 799M497 864C493.127 861.716 489.294 859.359 485 858C481.207 867.791 469.371 873.7 463.303 861.996C459.147 853.98 460.662 842.063 463.931 834C469.622 819.96 484.823 822.539 487 837C491.294 835.791 495.576 834.596 500 834C499.051 815.703 477.126 807.701 462.001 815.674C455.697 818.996 452.006 825.487 449.699 832C445.505 843.839 445.031 859.428 452.637 869.999C465.328 887.637 488.533 881.898 497 864M535 814.464C509.53 819.058 505.988 859.002 523.093 874.787C529.388 880.595 538.841 881.856 547 880.384C583.474 873.806 573.019 807.607 535 814.464z"/>
<path style="fill:#060606; stroke:none;" d="M536.001 825.573C529.626 827.41 527.334 833.96 527.04 840C526.453 852.08 529.173 875.211 546.96 869.347C553.437 867.212 554.923 859.985 554.996 854C555.138 842.417 553.296 820.586 536.001 825.573z"/>
</svg>
